<?xml version="1.0" encoding="UTF-8" standalone="no"?>
<!-- Generator: Adobe Illustrator 22.1.0, SVG Export Plug-In . SVG Version: 6.00 Build 0)  -->

<svg
   version="1.1"
   id="Layer_1"
   x="0px"
   y="0px"
   viewBox="0 0 276.10001 326"
   xml:space="preserve"
   sodipodi:docname="rocket-laptop-2.svg"
   width="276.10001"
   height="326"
   inkscape:version="1.2 (dc2aeda, 2022-05-15)"
   xmlns:inkscape="http://www.inkscape.org/namespaces/inkscape"
   xmlns:sodipodi="http://sodipodi.sourceforge.net/DTD/sodipodi-0.dtd"
   xmlns="http://www.w3.org/2000/svg"
   xmlns:svg="http://www.w3.org/2000/svg"><defs
   id="defs340" /><sodipodi:namedview
   id="namedview338"
   pagecolor="#ffffff"
   bordercolor="#000000"
   borderopacity="0.25"
   inkscape:showpageshadow="2"
   inkscape:pageopacity="0.0"
   inkscape:pagecheckerboard="0"
   inkscape:deskcolor="#d1d1d1"
   showgrid="false"
   inkscape:zoom="6.1789205"
   inkscape:cx="179.31935"
   inkscape:cy="60.12377"
   inkscape:window-width="1848"
   inkscape:window-height="1016"
   inkscape:window-x="72"
   inkscape:window-y="27"
   inkscape:window-maximized="1"
   inkscape:current-layer="g335"
   showguides="false" />
<style
   type="text/css"
   id="style188">
	.st0{fill:#1F7BE8;}
	.st1{fill-rule:evenodd;clip-rule:evenodd;fill:#3F434F;}
	.st2{fill-rule:evenodd;clip-rule:evenodd;fill:url(#SVGID_1_);}
	.st3{fill-rule:evenodd;clip-rule:evenodd;fill:#FFFFFF;}
	.st4{fill-rule:evenodd;clip-rule:evenodd;fill:#323641;}
	.st5{fill:#0C9696;}
	.st6{fill:#19B2B8;}
	.st7{fill:url(#SVGID_2_);}
	.st8{filter:url(#Adobe_OpacityMaskFilter);}
	.st9{filter:url(#Adobe_OpacityMaskFilter_1_);}
	.st10{mask:url(#SVGID_3_);fill:url(#SVGID_4_);}
	.st11{opacity:0.16;fill:url(#SVGID_5_);}
	.st12{fill:#FF973C;}
	.st13{fill:#FCD576;}
	.st14{opacity:0.1;fill:#020202;}
	.st15{fill:#EC610E;}
	.st16{fill:#EDEDED;}
	.st17{fill:#5B6D83;}
	.st18{opacity:0.14;}
	.st19{opacity:0.31;}
	.st20{fill:#FFFFFF;}
	.st21{fill:#33D1D1;}
</style>

<g
   id="g335"
   transform="translate(-111.5,-84)">
	<path
   class="st1"
   d="m 372.4,250.4 v 128.9 c 0,3.2 -1.5,6.1 -4,8 -1.9,1.5 -4.4,2.5 -7.2,2.5 H 137.6 c -6.2,0 -11.2,-4.7 -11.2,-10.4 v -129 c 0,-3.2 1.6,-6.1 4,-8 1.9,-1.5 4.5,-2.4 7.2,-2.4 h 223.7 c 6.1,0 11.1,4.6 11.1,10.4 z"
   id="path192" />
	<linearGradient
   id="SVGID_1_"
   gradientUnits="userSpaceOnUse"
   x1="249.3981"
   y1="249.8224"
   x2="249.3981"
   y2="313.05481">
		<stop
   offset="0"
   style="stop-color:#323641"
   id="stop194" />
		<stop
   offset="0.2199"
   style="stop-color:#363B47"
   id="stop196" />
		<stop
   offset="0.5083"
   style="stop-color:#404957"
   id="stop198" />
		<stop
   offset="0.8335"
   style="stop-color:#515F72"
   id="stop200" />
		<stop
   offset="1"
   style="stop-color:#5B6D83"
   id="stop202" />
	</linearGradient>
	<rect
   x="136.89999"
   y="249.8"
   class="st2"
   width="225"
   height="129.39999"
   id="rect205"
   style="fill:url(#SVGID_1_)" />
	<rect
   x="223.5"
   y="393"
   class="st3"
   width="52.299999"
   height="10.2"
   id="rect207" />
	<path
   class="st4"
   d="m 387.6,395.2 c 0,8.2 -4.3,14.8 -9.6,14.8 H 121.1 c -5.3,0 -9.6,-6.6 -9.6,-14.8 0,-1 0.1,-2 0.2,-2.8 h 113.2 c 0.9,2.5 3.4,4.2 6.3,4.2 h 36.6 c 2.9,0 5.3,-1.7 6.3,-4.2 h 113.2 c 0.2,0.8 0.3,1.9 0.3,2.8 z"
   id="path209" />
	<path
   class="st5"
   d="M 261.2,262.6 H 249.6 238 c 0,0 10.4,32.3 -12.3,90 h 23.9 23.9 c -22.8,-57.7 -12.3,-90 -12.3,-90 z"
   id="path211"
   style="fill:#3273dc;fill-opacity:1" />
	<g
   id="g229">
		<path
   class="st5"
   d="m 162.4,294.3 c 0,4.3 -0.7,8.4 -2,12.2 -0.7,1.9 -1.5,3.8 -2.5,5.6 -3.1,5.8 -7.8,10.6 -13.3,14.1 -2.4,1.5 -5,2.7 -7.7,3.6 V 259 c 14.4,4.8 24.9,18.1 25.5,33.9 0,0.4 0,0.9 0,1.4 z"
   id="path213"
   style="fill:#3273dc;fill-opacity:1" />
		<path
   class="st5"
   d="m 273.9,344 c 0,1.1 0,2.1 -0.1,3.1 0,0.1 0,0.3 0,0.4 -0.3,3.3 -1.1,6.5 -2.2,9.6 -0.3,0.8 -0.6,1.5 -1,2.3 -0.5,1.1 -1,2.2 -1.6,3.2 -1.6,2.7 -3.4,5.2 -5.6,7.4 -0.9,1 -1.9,1.9 -3,2.7 -1.7,1.4 -3.5,2.6 -5.3,3.7 -1.5,0.8 -3,1.5 -4.6,2.2 -0.6,0.2 -1.2,0.4 -1.8,0.7 h -24.1 c -2.2,-0.7 -4.3,-1.7 -6.3,-2.8 0,0 0,0 0,0 -5.5,-3.1 -10.1,-7.6 -13.4,-13 -1.2,-2 -2.3,-4.1 -3.1,-6.3 -0.8,-2.2 -1.4,-4.5 -1.8,-6.8 -0.4,-2.1 -0.5,-4.2 -0.5,-6.3 0,-3 0.4,-6 1.1,-8.8 2.4,-9.8 8.7,-18.1 17.1,-23.2 2.7,-1.6 5.7,-2.9 8.8,-3.8 3.3,-0.9 6.7,-1.4 10.3,-1.4 7,0 13.5,1.9 19.1,5.3 0.7,0.4 1.3,0.8 1.9,1.3 9.6,6.5 16.1,17.7 16.1,30.5 z"
   id="path215"
   style="fill:#3273dc;fill-opacity:1" />
		
			<circle
   transform="matrix(0.9239,-0.3827,0.3827,0.9239,-108.7963,89.1005)"
   class="st5"
   cx="169.60001"
   cy="318"
   id="ellipse217"
   r="26.200001"
   style="fill:#3273dc;fill-opacity:1" />
		
			<circle
   transform="matrix(0.9239,-0.3827,0.3827,0.9239,-108.6186,103.5508)"
   class="st5"
   cx="206"
   cy="324.79999"
   id="ellipse219"
   r="26.200001"
   style="fill:#3273dc;fill-opacity:1" />
		<circle
   class="st5"
   cx="294.29999"
   cy="327.89999"
   r="39.5"
   id="circle221"
   style="fill:#3273dc;fill-opacity:1" />
		<path
   class="st5"
   d="m 361.9,291.8 v 52.4 c -3.9,3 -8.4,5.2 -13.4,6.2 -0.5,0.1 -1,0.2 -1.5,0.3 -1.7,0.3 -3.5,0.4 -5.3,0.4 -1.9,0 -3.7,-0.2 -5.5,-0.5 -0.4,-0.1 -0.9,-0.2 -1.3,-0.2 -1.2,-0.2 -2.4,-0.6 -3.5,-0.9 -1.1,-0.4 -2.2,-0.8 -3.2,-1.2 -0.8,-0.4 -1.6,-0.8 -2.4,-1.2 -1.6,-0.9 -3.2,-1.9 -4.6,-3.1 -1.5,-1.2 -3,-2.6 -4.3,-4.1 -5.2,-5.8 -8.3,-13.5 -8.3,-21.9 0,-2.1 0.2,-4.1 0.5,-6 1.1,-6.2 4,-11.8 8.1,-16.3 3.8,-4.1 8.6,-7.3 14,-9.2 3.3,-1.1 6.8,-1.7 10.5,-1.7 3.7,0 7.3,0.6 10.6,1.7 3.4,1.3 6.7,3.1 9.6,5.3 z"
   id="path223"
   style="fill:#3273dc;fill-opacity:1" />
		<path
   class="st5"
   d="m 361.9,255.4 v 66.1 c -1.6,-0.1 -3,-0.3 -4.5,-0.6 -1.2,-0.2 -2.3,-0.5 -3.4,-0.9 -0.4,-0.1 -0.9,-0.3 -1.3,-0.5 -4.5,-1.7 -8.5,-4.3 -11.8,-7.6 -3.6,-3.6 -6.3,-7.9 -8,-12.8 -1.2,-3.4 -1.8,-7 -1.8,-10.7 0,-0.6 0,-1.3 0.1,-1.9 0.8,-13.5 9.6,-24.8 21.7,-29.2 2.8,-1 5.8,-1.7 9,-1.9 z"
   id="path225"
   style="fill:#3273dc;fill-opacity:1" />
		<rect
   x="136.89999"
   y="311.89999"
   class="st5"
   width="224.89999"
   height="32.099998"
   id="rect227"
   style="fill:#3273dc;fill-opacity:1" />
	</g>
	<path
   class="st6"
   d="m 356.7,269.4 c -2.9,4.9 -4.5,10.7 -4.5,16.8 0,0.2 0,0.3 0,0.5 0,2.2 0.3,4.4 0.7,6.5 v 0 c 0,0 0,0 0,0 -0.2,0 -0.5,0 -0.7,0 -7.2,0 -13.9,2.3 -19.4,6.2 -2.4,1.7 -4.5,3.7 -6.4,5.9 -1.8,2.1 -3.3,4.4 -4.5,6.9 -2.1,4.4 -3.3,9.4 -3.3,14.6 0,4.4 0.8,8.5 2.3,12.3 -1.5,0.2 -2.9,0.6 -4.3,1 -2.8,0.9 -5.5,2.3 -7.8,4.1 -1.3,1 -2.5,2.1 -3.6,3.3 0,0 0,0 0,0 -1.7,-1.3 -3.6,-2.4 -5.6,-3.3 -1.4,-0.6 -2.9,-1.1 -4.4,-1.4 -5.6,-1.3 -11.2,-0.7 -16.1,1.4 -1.9,0.8 -3.8,1.9 -5.4,3.1 -0.1,0.1 -0.2,0.2 -0.3,0.3 v 0 c -2.6,-1.4 -5.4,-2.6 -8.5,-3.4 -0.4,-0.1 -0.8,-0.2 -1.2,-0.3 -2,-0.5 -4,-0.7 -5.9,-0.9 -4.1,-0.3 -8.2,0.1 -12,1.2 -1.9,0.5 -3.8,1.2 -5.7,2 v 0 c -0.7,-0.7 -1.3,-1.4 -2,-2 -2.7,-2.5 -5.8,-4.6 -9.2,-6.3 -5.3,-2.6 -11.2,-4.1 -17.5,-4.1 -3.8,0 -7.5,0.5 -11,1.5 -4.3,1.2 -8.3,3.2 -11.8,5.7 0,0 0,0 0,0 -0.8,-0.9 -1.6,-1.7 -2.5,-2.4 -1.3,-1.2 -2.7,-2.2 -4.2,-3.2 -2.3,-1.5 -4.7,-2.7 -7.4,-3.5 v 0 c -0.4,-7.5 -3.3,-14.4 -8,-19.7 -1.8,-2.1 -3.9,-4 -6.2,-5.6 -2.3,-1.6 -4.9,-3 -7.6,-4 0,0 0,0 0,0 0.2,-1.3 0.2,-2.6 0.2,-4 0,-0.3 0,-0.6 0,-0.8 -0.3,-11.7 -6.7,-21.9 -16.1,-27.6 v 30.7 26.1 17.1 13.1 9.3 12.8 h 35.5 20.7 25.1 32.2 15.4 26.9 10.3 10.3 33.6 1.3 13.8 v -20.6 -1.6 -40.8 -6.7 -15.2 -31.9 c -2,2.1 -3.8,4.4 -5.2,6.9 z"
   id="path231"
   style="fill:#96baf3;fill-opacity:1" />
	<linearGradient
   id="SVGID_2_"
   gradientUnits="userSpaceOnUse"
   x1="249.43539"
   y1="262.58591"
   x2="249.43539"
   y2="352.59531">
		<stop
   offset="0"
   style="stop-color:#D7EBF6"
   id="stop233" />
		<stop
   offset="0.8988"
   style="stop-color:#C4E5F5"
   id="stop235" />
		<stop
   offset="1"
   style="stop-color:#C1E4F5"
   id="stop237" />
	</linearGradient>
	<path
   class="st7"
   d="m 253.8,262.6 h -4.4 -4.4 c 0,0 3.9,32.3 -4.7,90 h 9 9 c -8.4,-57.7 -4.5,-90 -4.5,-90 z"
   id="path240"
   style="fill:url(#SVGID_2_)" />
	<defs
   id="defs247">
		<filter
   id="Adobe_OpacityMaskFilter"
   filterUnits="userSpaceOnUse"
   x="130.39999"
   y="239.89999"
   width="242"
   height="147.39999">
			<feFlood
   result="back"
   id="feFlood242" />
			<feBlend
   in="SourceGraphic"
   in2="back"
   mode="normal"
   id="feBlend244" />
		</filter>
	</defs>
	<mask
   maskUnits="userSpaceOnUse"
   x="130.4"
   y="239.9"
   width="242"
   height="147.4"
   id="mask274">
		<g
   class="st8"
   id="g272">
			<defs
   id="defs254">
				<filter
   id="Adobe_OpacityMaskFilter_1_"
   filterUnits="userSpaceOnUse"
   x="130.39999"
   y="239.89999"
   width="242"
   height="147.39999">
					<feFlood
   result="back"
   id="feFlood249" />
					<feBlend
   in="SourceGraphic"
   in2="back"
   mode="normal"
   id="feBlend251" />
				</filter>
			</defs>
			<mask
   maskUnits="userSpaceOnUse"
   x="130.4"
   y="239.9"
   width="242"
   height="147.4"
   id="SVGID_3_">
				<g
   class="st9"
   id="g256">
				</g>
			</mask>
			<linearGradient
   id="SVGID_4_"
   gradientUnits="userSpaceOnUse"
   x1="180.5808"
   y1="179.1772"
   x2="289.1712"
   y2="278.80759">
				<stop
   offset="0"
   style="stop-color:#FFFFFF"
   id="stop259" />
				<stop
   offset="0.1075"
   style="stop-color:#EBEBEB"
   id="stop261" />
				<stop
   offset="0.3268"
   style="stop-color:#B9B9B9"
   id="stop263" />
				<stop
   offset="0.6393"
   style="stop-color:#676767"
   id="stop265" />
				<stop
   offset="1"
   style="stop-color:#000000"
   id="stop267" />
			</linearGradient>
			<path
   class="st10"
   d="m 372.4,250.4 v 128.9 c 0,3.2 -1.5,6.1 -4,8 l -238,-144.9 c 1.9,-1.5 4.4,-2.5 7.2,-2.5 h 223.7 c 6.1,0 11.1,4.7 11.1,10.5 z"
   mask="url(#SVGID_3_)"
   id="path270" />
		</g>
	</mask>
	<linearGradient
   id="SVGID_5_"
   gradientUnits="userSpaceOnUse"
   x1="180.5808"
   y1="179.1772"
   x2="289.1712"
   y2="278.80759">
		<stop
   offset="0"
   style="stop-color:#FFFFFF"
   id="stop276" />
		<stop
   offset="1"
   style="stop-color:#FFFFFF"
   id="stop278" />
	</linearGradient>
	<path
   class="st11"
   d="m 372.4,250.4 v 128.9 c 0,3.2 -1.5,6.1 -4,8 l -238,-144.9 c 1.9,-1.5 4.4,-2.5 7.2,-2.5 h 223.7 c 6.1,0 11.1,4.7 11.1,10.5 z"
   id="path281"
   style="fill:url(#SVGID_5_)" />
	<g
   id="g333">
		<path
   class="st12"
   d="m 249.3,213.5 c 0,0 -40.2,9.4 0,83.6 40.5,-74.2 0,-83.6 0,-83.6 z"
   id="path283" />
		<path
   class="st13"
   d="m 249.4,212.4 c 0,0 -23.7,5.5 0,48.9 23.8,-43.4 0,-48.9 0,-48.9 z"
   id="path285" />
		<path
   class="st14"
   d="m 249.5,297 v -83.5 c 1.6,0.4 39.6,10.8 0,83.5 z"
   id="path287" />
		<polygon
   class="st15"
   points="195.9,190.3 209.7,250.8 220.7,203.9 217.9,173.9 "
   id="polygon289" />
		<polygon
   class="st15"
   points="302.9,190.3 289.1,250.8 278.1,203.9 280.9,173.9 "
   id="polygon291" />
		<path
   class="st16"
   d="m 249.6,84 c 0,0 -46.7,51.9 -27.3,134.4 0,0 6.4,2.5 27.3,2.8 20.9,-0.3 27.3,-2.8 27.3,-2.8 C 296.3,135.9 249.6,84 249.6,84 Z"
   id="path293" />
		<path
   class="st15"
   d="m 271.7,123.4 c -6.9,2.3 -14.4,3.6 -22.1,3.6 -7.8,0 -15.2,-1.3 -22.1,-3.6 9.4,-25.3 22.1,-39.4 22.1,-39.4 0,0 12.7,14.2 22.1,39.4 z"
   id="path295" />
		<path
   class="st17"
   d="m 233.5,220.4 v 4.5 c 0,0 13.1,2.6 32,0 v -4.5 z"
   id="path297" />
		<g
   class="st18"
   id="g301">
			<path
   d="m 276.9,218.4 c 0,0 -3.1,1.2 -11.9,2.1 20.9,-61.9 0.9,-109.8 -9.1,-128.1 12,17.6 35.9,62.8 21,126 z"
   id="path299" />
		</g>
		<g
   class="st19"
   id="g305">
			<path
   class="st20"
   d="m 222.3,218.4 c 0,0 3.1,1.2 11.9,2.1 -20.9,-61.9 -0.9,-109.8 9.1,-128.1 -12,17.6 -35.9,62.8 -21,126 z"
   id="path303" />
		</g>
		<path
   class="st17"
   d="m 266.7,154.5 c 0,9.4 -7.7,17.1 -17.1,17.1 -0.5,0 -1,0 -1.5,-0.1 -2.9,-0.3 -5.5,-1.2 -7.8,-2.7 -0.4,-0.2 -0.7,-0.5 -1,-0.7 -2.9,-2.2 -5.1,-5.4 -6.1,-9 -0.4,-1.5 -0.6,-3 -0.6,-4.6 0,-9.4 7.7,-17.1 17.1,-17.1 0.7,0 1.4,0 2,0.1 3.8,0.5 7.2,2.2 9.9,4.7 0.3,0.3 0.6,0.6 0.9,0.9 1.8,2.1 3.2,4.5 3.9,7.3 0.1,1.3 0.3,2.7 0.3,4.1 z"
   id="path307" />
		<path
   class="st6"
   d="m 263.6,154.5 c 0,7.5 -5.9,13.7 -13.4,14 -0.2,0 -0.4,0 -0.6,0 -2.7,0 -5.2,-0.8 -7.3,-2.1 -0.3,-0.2 -0.7,-0.4 -1,-0.7 -2.9,-2.2 -4.9,-5.4 -5.5,-9.2 -0.1,-0.7 -0.2,-1.4 -0.2,-2.1 0,-7.7 6.2,-14 13.9,-14 0,0 0,0 0.1,0 3.8,0 7.3,1.5 9.8,4 0.3,0.3 0.6,0.6 0.8,0.9 1.8,2.1 3,4.7 3.3,7.6 0.1,0.6 0.1,1.1 0.1,1.6 z"
   id="path309"
   style="fill:#3273dc;fill-opacity:1" />
		<g
   id="g327">
			<path
   class="st20"
   d="m 250.3,138.7 c 0,0.4 -0.3,0.7 -0.7,0.7 -0.4,0 -0.7,-0.3 -0.7,-0.7 0,-0.4 0.3,-0.7 0.7,-0.7 0.4,0 0.7,0.3 0.7,0.7 z"
   id="path311" />
			<path
   class="st20"
   d="m 261.2,143.8 c -0.3,0.3 -0.8,0.3 -1.1,0 -0.3,-0.3 -0.3,-0.8 0,-1.1 0.3,-0.3 0.8,-0.3 1.1,0 0.3,0.3 0.3,0.8 0,1.1 z"
   id="path313" />
			<circle
   class="st20"
   cx="265.29999"
   cy="154.3"
   r="0.69999999"
   id="circle315" />
			<path
   class="st20"
   d="m 260.2,165.9 c -0.3,-0.3 -0.3,-0.8 0,-1.1 0.3,-0.3 0.8,-0.3 1.1,0 0.3,0.3 0.3,0.8 0,1.1 -0.3,0.3 -0.8,0.3 -1.1,0 z"
   id="path317" />
			<path
   class="st20"
   d="m 248.9,170 c 0,-0.4 0.3,-0.7 0.7,-0.7 0.4,0 0.7,0.3 0.7,0.7 0,0.4 -0.3,0.7 -0.7,0.7 -0.4,0 -0.7,-0.3 -0.7,-0.7 z"
   id="path319" />
			<path
   class="st20"
   d="m 238,164.9 c 0.3,-0.3 0.8,-0.3 1.1,0 0.3,0.3 0.3,0.8 0,1.1 -0.3,0.3 -0.8,0.3 -1.1,0 -0.3,-0.3 -0.3,-0.8 0,-1.1 z"
   id="path321" />
			<path
   class="st20"
   d="m 234,153.6 c 0.4,0 0.7,0.3 0.7,0.7 0,0.4 -0.3,0.7 -0.7,0.7 -0.4,0 -0.7,-0.3 -0.7,-0.7 -0.1,-0.3 0.2,-0.7 0.7,-0.7 z"
   id="path323" />
			<path
   class="st20"
   d="m 239,142.8 c 0.3,0.3 0.3,0.8 0,1.1 -0.3,0.3 -0.8,0.3 -1.1,0 -0.3,-0.3 -0.3,-0.8 0,-1.1 0.4,-0.3 0.9,-0.3 1.1,0 z"
   id="path325" />
		</g>
		<path
   class="st21"
   d="m 259.4,144.5 -18.2,21.2 c -2.9,-2.2 -4.9,-5.4 -5.5,-9.2 l 13.8,-16 c 0,0 0,0 0.1,0 3.8,0 7.3,1.5 9.8,4 z"
   id="path329"
   style="fill:#6497e8;fill-opacity:1" />
		<path
   class="st21"
   d="m 263.5,153 -13.3,15.5 c -0.2,0 -0.4,0 -0.6,0 -2.7,0 -5.2,-0.8 -7.3,-2.1 l 18,-21 c 1.7,2.1 2.9,4.7 3.2,7.6 z"
   id="path331"
   style="fill:#6497e8;fill-opacity:1" />
	</g>
</g>
</svg>
