<?xml version="1.0" encoding="UTF-8"?>
<!DOCTYPE svg PUBLIC "-//W3C//DTD SVG 1.1//EN" "http://www.w3.org/Graphics/SVG/1.1/DTD/svg11.dtd">
<svg xmlns="http://www.w3.org/2000/svg" xmlns:xlink="http://www.w3.org/1999/xlink" version="1.1" width="161px" height="121px" viewBox="-0.5 -0.5 161 121"><defs><style type="text/css">@import url(https://fonts.googleapis.com/css?family=Inconsolata);&#xa;@import url(https://fonts.googleapis.com/css?family=Josefin+Sans);&#xa;</style></defs><g><path d="M 11.62 71.88 L 32.38 51.12" fill="none" stroke="#ffffff" stroke-width="3" stroke-miterlimit="10" pointer-events="stroke"/><ellipse cx="9.5" cy="74" rx="3" ry="3" fill="#ffffff" stroke="#ffffff" stroke-width="3" pointer-events="all"/><ellipse cx="34.5" cy="49" rx="3" ry="3" fill="#ffffff" stroke="#ffffff" stroke-width="3" pointer-events="all"/><path d="M 47.38 61.88 L 36.62 51.12" fill="none" stroke="#ffffff" stroke-width="3" stroke-miterlimit="10" pointer-events="stroke"/><ellipse cx="49.5" cy="64" rx="3" ry="3" fill="#ffffff" stroke="#ffffff" stroke-width="3" pointer-events="all"/><ellipse cx="34.5" cy="49" rx="3" ry="3" fill="#ffffff" stroke="#ffffff" stroke-width="3" pointer-events="all"/><path d="M 35.99 46.4 L 53.01 16.6" fill="none" stroke="#ffffff" stroke-width="3" stroke-miterlimit="10" pointer-events="stroke"/><ellipse cx="34.5" cy="49" rx="3" ry="3" fill="#ffffff" stroke="#ffffff" stroke-width="3" pointer-events="all"/><ellipse cx="54.5" cy="14" rx="3" ry="3" fill="#ffffff" stroke="#ffffff" stroke-width="3" pointer-events="all"/><path d="M 57.44 13.41 L 76.56 9.59" fill="none" stroke="#ffffff" stroke-width="3" stroke-miterlimit="10" pointer-events="stroke"/><ellipse cx="54.5" cy="14" rx="3" ry="3" fill="#ffffff" stroke="#ffffff" stroke-width="3" pointer-events="all"/><ellipse cx="79.5" cy="9" rx="3" ry="3" fill="#ffffff" stroke="#ffffff" stroke-width="3" pointer-events="all"/><path d="M 82.44 9.59 L 101.56 13.41" fill="none" stroke="#ffffff" stroke-width="3" stroke-miterlimit="10" pointer-events="stroke"/><ellipse cx="79.5" cy="9" rx="3" ry="3" fill="#ffffff" stroke="#ffffff" stroke-width="3" pointer-events="all"/><ellipse cx="104.5" cy="14" rx="3" ry="3" fill="#ffffff" stroke="#ffffff" stroke-width="3" pointer-events="all"/><path d="M 55.45 16.85 L 58.55 26.15" fill="none" stroke="#ffffff" stroke-width="3" stroke-miterlimit="10" pointer-events="stroke"/><ellipse cx="54.5" cy="14" rx="3" ry="3" fill="#ffffff" stroke="#ffffff" stroke-width="3" pointer-events="all"/><ellipse cx="59.5" cy="29" rx="3" ry="3" fill="#ffffff" stroke="#ffffff" stroke-width="3" pointer-events="all"/><path d="M 62.41 29.73 L 76.59 33.27" fill="none" stroke="#ffffff" stroke-width="3" stroke-miterlimit="10" pointer-events="stroke"/><ellipse cx="59.5" cy="29" rx="3" ry="3" fill="#ffffff" stroke="#ffffff" stroke-width="3" pointer-events="all"/><ellipse cx="79.5" cy="34" rx="3" ry="3" fill="#ffffff" stroke="#ffffff" stroke-width="3" pointer-events="all"/><path d="M 82.41 33.27 L 96.59 29.73" fill="none" stroke="#ffffff" stroke-width="3" stroke-miterlimit="10" pointer-events="stroke"/><ellipse cx="79.5" cy="34" rx="3" ry="3" fill="#ffffff" stroke="#ffffff" stroke-width="3" pointer-events="all"/><ellipse cx="99.5" cy="29" rx="3" ry="3" fill="#ffffff" stroke="#ffffff" stroke-width="3" pointer-events="all"/><path d="M 100.45 26.15 L 103.55 16.85" fill="none" stroke="#ffffff" stroke-width="3" stroke-miterlimit="10" pointer-events="stroke"/><ellipse cx="99.5" cy="29" rx="3" ry="3" fill="#ffffff" stroke="#ffffff" stroke-width="3" pointer-events="all"/><ellipse cx="104.5" cy="14" rx="3" ry="3" fill="#ffffff" stroke="#ffffff" stroke-width="3" pointer-events="all"/><path d="M 105.99 16.6 L 123.01 46.4" fill="none" stroke="#ffffff" stroke-width="3" stroke-miterlimit="10" pointer-events="stroke"/><ellipse cx="104.5" cy="14" rx="3" ry="3" fill="#ffffff" stroke="#ffffff" stroke-width="3" pointer-events="all"/><ellipse cx="124.5" cy="49" rx="3" ry="3" fill="#ffffff" stroke="#ffffff" stroke-width="3" pointer-events="all"/><path d="M 126.62 51.12 L 147.38 71.88" fill="none" stroke="#ffffff" stroke-width="3" stroke-miterlimit="10" pointer-events="stroke"/><ellipse cx="124.5" cy="49" rx="3" ry="3" fill="#ffffff" stroke="#ffffff" stroke-width="3" pointer-events="all"/><ellipse cx="149.5" cy="74" rx="3" ry="3" fill="#ffffff" stroke="#ffffff" stroke-width="3" pointer-events="all"/><path d="M 58.68 31.88 L 50.32 61.12" fill="none" stroke="#ffffff" stroke-width="3" stroke-miterlimit="10" pointer-events="stroke"/><ellipse cx="59.5" cy="29" rx="3" ry="3" fill="#ffffff" stroke="#ffffff" stroke-width="3" pointer-events="all"/><ellipse cx="49.5" cy="64" rx="3" ry="3" fill="#ffffff" stroke="#ffffff" stroke-width="3" pointer-events="all"/><path d="M 108.68 61.12 L 100.32 31.88" fill="none" stroke="#ffffff" stroke-width="3" stroke-miterlimit="10" pointer-events="stroke"/><ellipse cx="109.5" cy="64" rx="3" ry="3" fill="#ffffff" stroke="#ffffff" stroke-width="3" pointer-events="all"/><ellipse cx="99.5" cy="29" rx="3" ry="3" fill="#ffffff" stroke="#ffffff" stroke-width="3" pointer-events="all"/><path d="M 111.62 61.88 L 122.38 51.12" fill="none" stroke="#ffffff" stroke-width="3" stroke-miterlimit="10" pointer-events="stroke"/><ellipse cx="109.5" cy="64" rx="3" ry="3" fill="#ffffff" stroke="#ffffff" stroke-width="3" pointer-events="all"/><ellipse cx="124.5" cy="49" rx="3" ry="3" fill="#ffffff" stroke="#ffffff" stroke-width="3" pointer-events="all"/><path d="M 79.5 71 L 79.5 37" fill="none" stroke="#ffffff" stroke-width="3" stroke-miterlimit="10" pointer-events="stroke"/><ellipse cx="79.5" cy="74" rx="3" ry="3" fill="#ffffff" stroke="#ffffff" stroke-width="3" pointer-events="all"/><ellipse cx="79.5" cy="34" rx="3" ry="3" fill="#ffffff" stroke="#ffffff" stroke-width="3" pointer-events="all"/><path d="M 52.35 64.95 L 76.65 73.05" fill="none" stroke="#ffffff" stroke-width="3" stroke-miterlimit="10" pointer-events="stroke"/><ellipse cx="49.5" cy="64" rx="3" ry="3" fill="#ffffff" stroke="#ffffff" stroke-width="3" pointer-events="all"/><ellipse cx="79.5" cy="74" rx="3" ry="3" fill="#ffffff" stroke="#ffffff" stroke-width="3" pointer-events="all"/><path d="M 11.62 76.12 L 27.38 91.88" fill="none" stroke="#ffffff" stroke-width="3" stroke-miterlimit="10" pointer-events="stroke"/><ellipse cx="9.5" cy="74" rx="3" ry="3" fill="#ffffff" stroke="#ffffff" stroke-width="3" pointer-events="all"/><ellipse cx="29.5" cy="94" rx="3" ry="3" fill="#ffffff" stroke="#ffffff" stroke-width="3" pointer-events="all"/><path d="M 32.37 94.86 L 76.63 108.14" fill="none" stroke="#ffffff" stroke-width="3" stroke-miterlimit="10" pointer-events="stroke"/><ellipse cx="29.5" cy="94" rx="3" ry="3" fill="#ffffff" stroke="#ffffff" stroke-width="3" pointer-events="all"/><ellipse cx="79.5" cy="109" rx="3" ry="3" fill="#ffffff" stroke="#ffffff" stroke-width="3" pointer-events="all"/><path d="M 31.16 91.5 L 47.84 66.5" fill="none" stroke="#ffffff" stroke-width="3" stroke-miterlimit="10" pointer-events="stroke"/><ellipse cx="29.5" cy="94" rx="3" ry="3" fill="#ffffff" stroke="#ffffff" stroke-width="3" pointer-events="all"/><ellipse cx="49.5" cy="64" rx="3" ry="3" fill="#ffffff" stroke="#ffffff" stroke-width="3" pointer-events="all"/><path d="M 79.5 106 L 79.5 77" fill="none" stroke="#ffffff" stroke-width="3" stroke-miterlimit="10" pointer-events="stroke"/><ellipse cx="79.5" cy="109" rx="3" ry="3" fill="#ffffff" stroke="#ffffff" stroke-width="3" pointer-events="all"/><ellipse cx="79.5" cy="74" rx="3" ry="3" fill="#ffffff" stroke="#ffffff" stroke-width="3" pointer-events="all"/><path d="M 82.35 73.05 L 106.65 64.95" fill="none" stroke="#ffffff" stroke-width="3" stroke-miterlimit="10" pointer-events="stroke"/><ellipse cx="79.5" cy="74" rx="3" ry="3" fill="#ffffff" stroke="#ffffff" stroke-width="3" pointer-events="all"/><ellipse cx="109.5" cy="64" rx="3" ry="3" fill="#ffffff" stroke="#ffffff" stroke-width="3" pointer-events="all"/><path d="M 82.37 108.14 L 126.63 94.86" fill="none" stroke="#ffffff" stroke-width="3" stroke-miterlimit="10" pointer-events="stroke"/><ellipse cx="79.5" cy="109" rx="3" ry="3" fill="#ffffff" stroke="#ffffff" stroke-width="3" pointer-events="all"/><ellipse cx="129.5" cy="94" rx="3" ry="3" fill="#ffffff" stroke="#ffffff" stroke-width="3" pointer-events="all"/><path d="M 131.62 91.88 L 147.38 76.12" fill="none" stroke="#ffffff" stroke-width="3" stroke-miterlimit="10" pointer-events="stroke"/><ellipse cx="129.5" cy="94" rx="3" ry="3" fill="#ffffff" stroke="#ffffff" stroke-width="3" pointer-events="all"/><ellipse cx="149.5" cy="74" rx="3" ry="3" fill="#ffffff" stroke="#ffffff" stroke-width="3" pointer-events="all"/><path d="M 111.16 66.5 L 127.84 91.5" fill="none" stroke="#ffffff" stroke-width="3" stroke-miterlimit="10" pointer-events="stroke"/><ellipse cx="109.5" cy="64" rx="3" ry="3" fill="#ffffff" stroke="#ffffff" stroke-width="3" pointer-events="all"/><ellipse cx="129.5" cy="94" rx="3" ry="3" fill="#ffffff" stroke="#ffffff" stroke-width="3" pointer-events="all"/></g></svg>