<?xml version="1.0" encoding="UTF-8"?>
<!DOCTYPE svg PUBLIC "-//W3C//DTD SVG 1.1//EN" "http://www.w3.org/Graphics/SVG/1.1/DTD/svg11.dtd">
<svg xmlns="http://www.w3.org/2000/svg" xmlns:xlink="http://www.w3.org/1999/xlink" version="1.1" width="160px" height="120px" viewBox="-0.5 -0.5 160 120"><defs><style type="text/css">@import url(https://fonts.googleapis.com/css?family=Inconsolata);&#xa;@import url(https://fonts.googleapis.com/css?family=Josefin+Sans);&#xa;</style></defs><g><path d="M 11.12 71.88 L 31.88 51.12" fill="none" stroke="rgb(0, 0, 0)" stroke-width="3" stroke-miterlimit="10" pointer-events="stroke"/><ellipse cx="9" cy="74" rx="3" ry="3" fill="rgb(0, 0, 0)" stroke="rgb(0, 0, 0)" stroke-width="3" pointer-events="all"/><ellipse cx="34" cy="49" rx="3" ry="3" fill="rgb(0, 0, 0)" stroke="rgb(0, 0, 0)" stroke-width="3" pointer-events="all"/><path d="M 46.88 61.88 L 36.12 51.12" fill="none" stroke="rgb(0, 0, 0)" stroke-width="3" stroke-miterlimit="10" pointer-events="stroke"/><ellipse cx="49" cy="64" rx="3" ry="3" fill="rgb(0, 0, 0)" stroke="rgb(0, 0, 0)" stroke-width="3" pointer-events="all"/><ellipse cx="34" cy="49" rx="3" ry="3" fill="rgb(0, 0, 0)" stroke="rgb(0, 0, 0)" stroke-width="3" pointer-events="all"/><path d="M 35.49 46.4 L 52.51 16.6" fill="none" stroke="rgb(0, 0, 0)" stroke-width="3" stroke-miterlimit="10" pointer-events="stroke"/><ellipse cx="34" cy="49" rx="3" ry="3" fill="rgb(0, 0, 0)" stroke="rgb(0, 0, 0)" stroke-width="3" pointer-events="all"/><ellipse cx="54" cy="14" rx="3" ry="3" fill="rgb(0, 0, 0)" stroke="rgb(0, 0, 0)" stroke-width="3" pointer-events="all"/><path d="M 56.94 13.41 L 76.06 9.59" fill="none" stroke="rgb(0, 0, 0)" stroke-width="3" stroke-miterlimit="10" pointer-events="stroke"/><ellipse cx="54" cy="14" rx="3" ry="3" fill="rgb(0, 0, 0)" stroke="rgb(0, 0, 0)" stroke-width="3" pointer-events="all"/><ellipse cx="79" cy="9" rx="3" ry="3" fill="rgb(0, 0, 0)" stroke="rgb(0, 0, 0)" stroke-width="3" pointer-events="all"/><path d="M 81.94 9.59 L 101.06 13.41" fill="none" stroke="rgb(0, 0, 0)" stroke-width="3" stroke-miterlimit="10" pointer-events="stroke"/><ellipse cx="79" cy="9" rx="3" ry="3" fill="rgb(0, 0, 0)" stroke="rgb(0, 0, 0)" stroke-width="3" pointer-events="all"/><ellipse cx="104" cy="14" rx="3" ry="3" fill="rgb(0, 0, 0)" stroke="rgb(0, 0, 0)" stroke-width="3" pointer-events="all"/><path d="M 54.95 16.85 L 58.05 26.15" fill="none" stroke="rgb(0, 0, 0)" stroke-width="3" stroke-miterlimit="10" pointer-events="stroke"/><ellipse cx="54" cy="14" rx="3" ry="3" fill="rgb(0, 0, 0)" stroke="rgb(0, 0, 0)" stroke-width="3" pointer-events="all"/><ellipse cx="59" cy="29" rx="3" ry="3" fill="rgb(0, 0, 0)" stroke="rgb(0, 0, 0)" stroke-width="3" pointer-events="all"/><path d="M 61.91 29.73 L 76.09 33.27" fill="none" stroke="rgb(0, 0, 0)" stroke-width="3" stroke-miterlimit="10" pointer-events="stroke"/><ellipse cx="59" cy="29" rx="3" ry="3" fill="rgb(0, 0, 0)" stroke="rgb(0, 0, 0)" stroke-width="3" pointer-events="all"/><ellipse cx="79" cy="34" rx="3" ry="3" fill="rgb(0, 0, 0)" stroke="rgb(0, 0, 0)" stroke-width="3" pointer-events="all"/><path d="M 81.91 33.27 L 96.09 29.73" fill="none" stroke="rgb(0, 0, 0)" stroke-width="3" stroke-miterlimit="10" pointer-events="stroke"/><ellipse cx="79" cy="34" rx="3" ry="3" fill="rgb(0, 0, 0)" stroke="rgb(0, 0, 0)" stroke-width="3" pointer-events="all"/><ellipse cx="99" cy="29" rx="3" ry="3" fill="rgb(0, 0, 0)" stroke="rgb(0, 0, 0)" stroke-width="3" pointer-events="all"/><path d="M 99.95 26.15 L 103.05 16.85" fill="none" stroke="rgb(0, 0, 0)" stroke-width="3" stroke-miterlimit="10" pointer-events="stroke"/><ellipse cx="99" cy="29" rx="3" ry="3" fill="rgb(0, 0, 0)" stroke="rgb(0, 0, 0)" stroke-width="3" pointer-events="all"/><ellipse cx="104" cy="14" rx="3" ry="3" fill="rgb(0, 0, 0)" stroke="rgb(0, 0, 0)" stroke-width="3" pointer-events="all"/><path d="M 105.49 16.6 L 122.51 46.4" fill="none" stroke="rgb(0, 0, 0)" stroke-width="3" stroke-miterlimit="10" pointer-events="stroke"/><ellipse cx="104" cy="14" rx="3" ry="3" fill="rgb(0, 0, 0)" stroke="rgb(0, 0, 0)" stroke-width="3" pointer-events="all"/><ellipse cx="124" cy="49" rx="3" ry="3" fill="rgb(0, 0, 0)" stroke="rgb(0, 0, 0)" stroke-width="3" pointer-events="all"/><path d="M 126.12 51.12 L 146.88 71.88" fill="none" stroke="rgb(0, 0, 0)" stroke-width="3" stroke-miterlimit="10" pointer-events="stroke"/><ellipse cx="124" cy="49" rx="3" ry="3" fill="rgb(0, 0, 0)" stroke="rgb(0, 0, 0)" stroke-width="3" pointer-events="all"/><ellipse cx="149" cy="74" rx="3" ry="3" fill="rgb(0, 0, 0)" stroke="rgb(0, 0, 0)" stroke-width="3" pointer-events="all"/><path d="M 58.18 31.88 L 49.82 61.12" fill="none" stroke="rgb(0, 0, 0)" stroke-width="3" stroke-miterlimit="10" pointer-events="stroke"/><ellipse cx="59" cy="29" rx="3" ry="3" fill="rgb(0, 0, 0)" stroke="rgb(0, 0, 0)" stroke-width="3" pointer-events="all"/><ellipse cx="49" cy="64" rx="3" ry="3" fill="rgb(0, 0, 0)" stroke="rgb(0, 0, 0)" stroke-width="3" pointer-events="all"/><path d="M 108.18 61.12 L 99.82 31.88" fill="none" stroke="rgb(0, 0, 0)" stroke-width="3" stroke-miterlimit="10" pointer-events="stroke"/><ellipse cx="109" cy="64" rx="3" ry="3" fill="rgb(0, 0, 0)" stroke="rgb(0, 0, 0)" stroke-width="3" pointer-events="all"/><ellipse cx="99" cy="29" rx="3" ry="3" fill="rgb(0, 0, 0)" stroke="rgb(0, 0, 0)" stroke-width="3" pointer-events="all"/><path d="M 111.12 61.88 L 121.88 51.12" fill="none" stroke="rgb(0, 0, 0)" stroke-width="3" stroke-miterlimit="10" pointer-events="stroke"/><ellipse cx="109" cy="64" rx="3" ry="3" fill="rgb(0, 0, 0)" stroke="rgb(0, 0, 0)" stroke-width="3" pointer-events="all"/><ellipse cx="124" cy="49" rx="3" ry="3" fill="rgb(0, 0, 0)" stroke="rgb(0, 0, 0)" stroke-width="3" pointer-events="all"/><path d="M 79 71 L 79 37" fill="none" stroke="rgb(0, 0, 0)" stroke-width="3" stroke-miterlimit="10" pointer-events="stroke"/><ellipse cx="79" cy="74" rx="3" ry="3" fill="rgb(0, 0, 0)" stroke="rgb(0, 0, 0)" stroke-width="3" pointer-events="all"/><ellipse cx="79" cy="34" rx="3" ry="3" fill="rgb(0, 0, 0)" stroke="rgb(0, 0, 0)" stroke-width="3" pointer-events="all"/><path d="M 51.85 64.95 L 76.15 73.05" fill="none" stroke="rgb(0, 0, 0)" stroke-width="3" stroke-miterlimit="10" pointer-events="stroke"/><ellipse cx="49" cy="64" rx="3" ry="3" fill="rgb(0, 0, 0)" stroke="rgb(0, 0, 0)" stroke-width="3" pointer-events="all"/><ellipse cx="79" cy="74" rx="3" ry="3" fill="rgb(0, 0, 0)" stroke="rgb(0, 0, 0)" stroke-width="3" pointer-events="all"/><path d="M 11.12 76.12 L 26.88 91.88" fill="none" stroke="rgb(0, 0, 0)" stroke-width="3" stroke-miterlimit="10" pointer-events="stroke"/><ellipse cx="9" cy="74" rx="3" ry="3" fill="rgb(0, 0, 0)" stroke="rgb(0, 0, 0)" stroke-width="3" pointer-events="all"/><ellipse cx="29" cy="94" rx="3" ry="3" fill="rgb(0, 0, 0)" stroke="rgb(0, 0, 0)" stroke-width="3" pointer-events="all"/><path d="M 31.87 94.86 L 76.13 108.14" fill="none" stroke="rgb(0, 0, 0)" stroke-width="3" stroke-miterlimit="10" pointer-events="stroke"/><ellipse cx="29" cy="94" rx="3" ry="3" fill="rgb(0, 0, 0)" stroke="rgb(0, 0, 0)" stroke-width="3" pointer-events="all"/><ellipse cx="79" cy="109" rx="3" ry="3" fill="rgb(0, 0, 0)" stroke="rgb(0, 0, 0)" stroke-width="3" pointer-events="all"/><path d="M 30.66 91.5 L 47.34 66.5" fill="none" stroke="rgb(0, 0, 0)" stroke-width="3" stroke-miterlimit="10" pointer-events="stroke"/><ellipse cx="29" cy="94" rx="3" ry="3" fill="rgb(0, 0, 0)" stroke="rgb(0, 0, 0)" stroke-width="3" pointer-events="all"/><ellipse cx="49" cy="64" rx="3" ry="3" fill="rgb(0, 0, 0)" stroke="rgb(0, 0, 0)" stroke-width="3" pointer-events="all"/><path d="M 79 106 L 79 77" fill="none" stroke="rgb(0, 0, 0)" stroke-width="3" stroke-miterlimit="10" pointer-events="stroke"/><ellipse cx="79" cy="109" rx="3" ry="3" fill="rgb(0, 0, 0)" stroke="rgb(0, 0, 0)" stroke-width="3" pointer-events="all"/><ellipse cx="79" cy="74" rx="3" ry="3" fill="rgb(0, 0, 0)" stroke="rgb(0, 0, 0)" stroke-width="3" pointer-events="all"/><path d="M 81.85 73.05 L 106.15 64.95" fill="none" stroke="rgb(0, 0, 0)" stroke-width="3" stroke-miterlimit="10" pointer-events="stroke"/><ellipse cx="79" cy="74" rx="3" ry="3" fill="rgb(0, 0, 0)" stroke="rgb(0, 0, 0)" stroke-width="3" pointer-events="all"/><ellipse cx="109" cy="64" rx="3" ry="3" fill="rgb(0, 0, 0)" stroke="rgb(0, 0, 0)" stroke-width="3" pointer-events="all"/><path d="M 81.87 108.14 L 126.13 94.86" fill="none" stroke="rgb(0, 0, 0)" stroke-width="3" stroke-miterlimit="10" pointer-events="stroke"/><ellipse cx="79" cy="109" rx="3" ry="3" fill="rgb(0, 0, 0)" stroke="rgb(0, 0, 0)" stroke-width="3" pointer-events="all"/><ellipse cx="129" cy="94" rx="3" ry="3" fill="rgb(0, 0, 0)" stroke="rgb(0, 0, 0)" stroke-width="3" pointer-events="all"/><path d="M 131.12 91.88 L 146.88 76.12" fill="none" stroke="rgb(0, 0, 0)" stroke-width="3" stroke-miterlimit="10" pointer-events="stroke"/><ellipse cx="129" cy="94" rx="3" ry="3" fill="rgb(0, 0, 0)" stroke="rgb(0, 0, 0)" stroke-width="3" pointer-events="all"/><ellipse cx="149" cy="74" rx="3" ry="3" fill="rgb(0, 0, 0)" stroke="rgb(0, 0, 0)" stroke-width="3" pointer-events="all"/><path d="M 110.66 66.5 L 127.34 91.5" fill="none" stroke="rgb(0, 0, 0)" stroke-width="3" stroke-miterlimit="10" pointer-events="stroke"/><ellipse cx="109" cy="64" rx="3" ry="3" fill="rgb(0, 0, 0)" stroke="rgb(0, 0, 0)" stroke-width="3" pointer-events="all"/><ellipse cx="129" cy="94" rx="3" ry="3" fill="rgb(0, 0, 0)" stroke="rgb(0, 0, 0)" stroke-width="3" pointer-events="all"/></g></svg>
